<?xml version="1.0" encoding="utf-8"?>
<!-- Svg Vector Icons : http://www.onlinewebfonts.com/icon -->
<!DOCTYPE svg PUBLIC "-//W3C//DTD SVG 1.1//EN" "http://www.w3.org/Graphics/SVG/1.1/DTD/svg11.dtd">
<svg version="1.1" xmlns="http://www.w3.org/2000/svg" xmlns:xlink="http://www.w3.org/1999/xlink" x="0px" y="0px" viewBox="0 0 1000 1000" enable-background="new 0 0 1000 1000" xml:space="preserve">
<metadata> Svg Vector Icons : http://www.onlinewebfonts.com/icon </metadata>
<g><g transform="translate(0.000000,511.000000) scale(0.100000,-0.100000)"><path d="M4665.9,4998.1c-706.2-67.8-1262.8-217.4-1825.3-494.7C1378.3,3783.2,380.8,2402.7,145.4,772.9C-18.1-376.2,265.1-1623,913.5-2598.5c796-1198.9,2032.8-1967,3493.1-2166.5c245.4-33.9,951.6-33.9,1196.9,0c764,103.7,1504.2,379,2104.6,778c1198.9,798,1967,2032.8,2166.5,3493.1c33.9,245.4,33.9,951.6,0,1196.9C9752.9,1588.8,9431.7,2380.8,8911,3073c-177.5,235.4-528.6,600.5-774,805.9c-634.4,530.6-1466.3,915.7-2274.2,1053.3C5459.8,5002.1,4971.1,5028,4665.9,4998.1z M5425.9,4453.5c2234.3-223.4,3928-2090.7,3928-4328.9c0-2397.9-1951-4348.9-4348.9-4348.9c-2399.9,0-4348.9,1949-4348.9,4348.9c0,1151.1,446.9,2236.3,1256.8,3054.2c263.3,263.3,428.9,399,732.1,598.5C3457,4305.9,4460.4,4549.2,5425.9,4453.5z"/><path d="M3431,1894c-640.4-498.7-662.3-518.7-628.4-552.6c21.9-20,323.2-255.3,672.3-524.7l632.4-492.7V743v418.9h943.6c1023.4,0,1061.3-4,1290.7-113.7c145.6-69.8,373-299.2,444.9-448.8c151.6-315.2,151.6-634.4,0-949.6c-71.8-149.6-299.2-379-444.9-448.8c-235.4-113.7-241.4-113.7-1570-113.7H3548.7v-209.5v-209.5h1202.9c676.3,0,1252.8,8,1320.6,20c474.8,75.8,879.7,369.1,1087.2,788c115.7,231.4,147.6,377,147.6,648.3s-31.9,416.9-147.6,648.3c-165.6,333.2-488.8,616.4-831.9,726.1c-281.3,89.8-440.9,101.7-1356.5,101.7h-863.8l-4,405l-6,403L3431,1894z"/></g></g>
</svg>